<?xml version="1.0"?>
<svg xmlns="http://www.w3.org/2000/svg" xmlns:xlink="http://www.w3.org/1999/xlink" xmlns:svgjs="http://svgjs.com/svgjs" version="1.1" width="512" height="512" x="0" y="0" viewBox="0 0 54.667 54.667" style="enable-background:new 0 0 512 512" xml:space="preserve" class=""><g>
<g xmlns="http://www.w3.org/2000/svg">
	<g>
		<path style="" d="M39.433,0h-24.2c-2.219,0-4.024,1.762-4.024,3.927v46.814c0,2.165,1.806,3.926,4.024,3.926h24.2    c2.22,0,4.025-1.761,4.025-3.926V3.927C43.458,1.762,41.652,0,39.433,0z M15.232,2h24.2c1.116,0,2.025,0.865,2.025,1.927v2.407    h-28.25V3.927C13.208,2.865,14.116,2,15.232,2z M41.458,8.334v32.833h-28.25V8.334H41.458z M39.433,52.667h-24.2    c-1.116,0-2.024-0.863-2.024-1.926v-7.574h28.25v7.574C41.458,51.804,40.549,52.667,39.433,52.667z" fill="#ffffff" data-original="#010002" class=""/>
		<circle style="" cx="27.333" cy="47.522" r="3.063" fill="#ffffff" data-original="#010002" class=""/>
	</g>
</g>
<g xmlns="http://www.w3.org/2000/svg">
</g>
<g xmlns="http://www.w3.org/2000/svg">
</g>
<g xmlns="http://www.w3.org/2000/svg">
</g>
<g xmlns="http://www.w3.org/2000/svg">
</g>
<g xmlns="http://www.w3.org/2000/svg">
</g>
<g xmlns="http://www.w3.org/2000/svg">
</g>
<g xmlns="http://www.w3.org/2000/svg">
</g>
<g xmlns="http://www.w3.org/2000/svg">
</g>
<g xmlns="http://www.w3.org/2000/svg">
</g>
<g xmlns="http://www.w3.org/2000/svg">
</g>
<g xmlns="http://www.w3.org/2000/svg">
</g>
<g xmlns="http://www.w3.org/2000/svg">
</g>
<g xmlns="http://www.w3.org/2000/svg">
</g>
<g xmlns="http://www.w3.org/2000/svg">
</g>
<g xmlns="http://www.w3.org/2000/svg">
</g>
</g></svg>
